<svg width="69" height="69" viewBox="0 0 69 69" fill="none" xmlns="http://www.w3.org/2000/svg">
<circle cx="34.5" cy="34.5" r="34.5" fill="#263758"/>
<circle cx="35" cy="35" r="20" fill="#266DA1"/>
<path d="M8.59277 31.0073L7.54541 32.1182V35H5.93945V25.7578H7.54541V30.0933L8.43408 28.9951L11.1382 25.7578H13.0806L9.64648 29.8521L13.2773 35H11.373L8.59277 31.0073ZM17.8352 35C17.7675 34.8688 17.7083 34.6551 17.6575 34.3589C17.1666 34.8709 16.5657 35.127 15.8547 35.127C15.165 35.127 14.6021 34.9302 14.1663 34.5366C13.7304 34.1431 13.5125 33.6564 13.5125 33.0767C13.5125 32.3446 13.7833 31.7839 14.325 31.3945C14.8709 31.001 15.6495 30.8042 16.6609 30.8042H17.6067V30.3535C17.6067 29.998 17.5073 29.7145 17.3084 29.5029C17.1095 29.2871 16.8069 29.1792 16.4006 29.1792C16.0494 29.1792 15.7616 29.2681 15.5374 29.4458C15.3131 29.6193 15.2009 29.8415 15.2009 30.1123H13.6585C13.6585 29.7357 13.7833 29.3844 14.033 29.0586C14.2826 28.7285 14.6212 28.4704 15.0486 28.2842C15.4802 28.098 15.9605 28.0049 16.4895 28.0049C17.2935 28.0049 17.9347 28.208 18.4129 28.6143C18.891 29.0163 19.1365 29.5833 19.1492 30.3154V33.4131C19.1492 34.0309 19.2359 34.5239 19.4094 34.8921V35H17.8352ZM16.1404 33.8892C16.4451 33.8892 16.7307 33.8151 16.9973 33.667C17.2682 33.5189 17.4713 33.32 17.6067 33.0703V31.7754H16.7752C16.2039 31.7754 15.7743 31.8748 15.4866 32.0737C15.1988 32.2726 15.0549 32.554 15.0549 32.918C15.0549 33.2142 15.1523 33.4512 15.3469 33.6289C15.5458 33.8024 15.8103 33.8892 16.1404 33.8892ZM22.1519 33.7686H25.8081V35H20.2349V33.9907L23.7197 29.376H20.2984V28.1318H25.6748V29.1094L22.1519 33.7686ZM39.3106 29.541C39.1075 29.5072 38.898 29.4902 38.6822 29.4902C37.9755 29.4902 37.4994 29.7611 37.254 30.3027V35H35.7115V28.1318H37.1841L37.2222 28.8999C37.5946 28.3032 38.1109 28.0049 38.7711 28.0049C38.9911 28.0049 39.1731 28.0345 39.317 28.0938L39.3106 29.541ZM39.5076 31.5024C39.5076 30.8296 39.6409 30.2244 39.9075 29.687C40.1741 29.1453 40.5487 28.7306 41.0311 28.4429C41.5135 28.1509 42.0679 28.0049 42.6942 28.0049C43.6209 28.0049 44.3721 28.3032 44.9476 28.8999C45.5273 29.4966 45.8405 30.2879 45.887 31.2739L45.8934 31.6357C45.8934 32.3128 45.7622 32.918 45.4998 33.4512C45.2417 33.9844 44.8693 34.397 44.3826 34.689C43.9002 34.981 43.3416 35.127 42.7069 35.127C41.7378 35.127 40.9613 34.8053 40.3773 34.1621C39.7975 33.5146 39.5076 32.6535 39.5076 31.5786V31.5024ZM41.0501 31.6357C41.0501 32.3424 41.1961 32.8968 41.4881 33.2988C41.7801 33.6966 42.1863 33.8955 42.7069 33.8955C43.2274 33.8955 43.6315 33.6924 43.9193 33.2861C44.2113 32.8799 44.3572 32.2853 44.3572 31.5024C44.3572 30.8084 44.207 30.2583 43.9066 29.8521C43.6103 29.4458 43.2062 29.2427 42.6942 29.2427C42.1906 29.2427 41.7907 29.4437 41.4945 29.8457C41.1982 30.2435 41.0501 30.8402 41.0501 31.6357ZM49.169 32.0547L48.4835 32.7593V35H46.941V25.25H48.4835V30.874L48.9659 30.271L50.8638 28.1318H52.7174L50.1656 30.9946L52.9903 35H51.2066L49.169 32.0547ZM56.3675 35.127C55.39 35.127 54.5965 34.8201 53.9871 34.2065C53.382 33.5887 53.0794 32.7677 53.0794 31.7437V31.5532C53.0794 30.8677 53.2106 30.2562 53.473 29.7188C53.7396 29.1771 54.112 28.756 54.5902 28.4556C55.0684 28.1551 55.6016 28.0049 56.1898 28.0049C57.125 28.0049 57.8465 28.3032 58.3543 28.8999C58.8664 29.4966 59.1224 30.3408 59.1224 31.4326V32.0547H54.6346C54.6812 32.6217 54.8695 33.0703 55.1996 33.4004C55.5339 33.7305 55.9528 33.8955 56.4564 33.8955C57.1631 33.8955 57.7386 33.6099 58.1829 33.0386L59.0145 33.832C58.7394 34.2425 58.3713 34.562 57.91 34.7905C57.453 35.0148 56.9388 35.127 56.3675 35.127ZM56.1834 29.2427C55.7603 29.2427 55.4175 29.3908 55.1551 29.687C54.897 29.9832 54.7319 30.3958 54.66 30.9248H57.599V30.8105C57.5651 30.2943 57.4276 29.9049 57.1864 29.6426C56.9452 29.376 56.6108 29.2427 56.1834 29.2427ZM63.6612 29.541C63.4581 29.5072 63.2486 29.4902 63.0328 29.4902C62.3261 29.4902 61.85 29.7611 61.6046 30.3027V35H60.0621V28.1318H61.5348L61.5729 28.8999C61.9452 28.3032 62.4615 28.0049 63.1217 28.0049C63.3417 28.0049 63.5237 28.0345 63.6676 28.0938L63.6612 29.541Z" fill="white"/>
<path d="M29.7759 25.9106H28.2598C28.1963 25.9106 28.145 25.9082 28.106 25.9033C28.0718 25.8984 28.04 25.8838 28.0107 25.8594C27.9863 25.8301 27.9741 25.791 27.9741 25.7422C27.9741 25.5371 28.1133 25.3198 28.3916 25.0903C28.6699 24.8608 28.9507 24.7388 29.2339 24.7241C29.5513 24.7095 29.9614 24.7021 30.4644 24.7021C30.6694 24.7021 30.855 24.707 31.021 24.7168C31.1919 24.7266 31.3945 24.751 31.6289 24.79C31.8682 24.8291 32.0781 24.8828 32.2588 24.9512C32.4395 25.0195 32.625 25.1196 32.8154 25.2515C33.0107 25.3833 33.1719 25.5396 33.2988 25.7202C33.4258 25.896 33.5308 26.1206 33.6138 26.394C33.6968 26.6626 33.7383 26.9653 33.7383 27.3022C33.7383 28.0249 33.4429 28.6206 32.8521 29.0894C32.769 29.1528 32.7275 29.209 32.7275 29.2578C32.7275 29.3213 32.7642 29.3652 32.8374 29.3896C33.4917 29.6045 33.98 29.9243 34.3022 30.3491C34.6245 30.7739 34.7856 31.3501 34.7856 32.0776C34.7856 32.3462 34.7466 32.6147 34.6685 32.8833C34.5952 33.147 34.4731 33.4082 34.3022 33.667C34.1362 33.9209 33.9312 34.1479 33.687 34.3481C33.4478 34.5435 33.1475 34.7021 32.7861 34.8242C32.4248 34.9414 32.0269 35 31.5923 35C31.4214 35 31.3359 34.9536 31.3359 34.8608C31.3359 34.7974 31.375 34.7461 31.4531 34.707C32.0586 34.4385 32.5054 34.0942 32.7935 33.6743C33.0815 33.2544 33.2256 32.7319 33.2256 32.1069C33.2256 30.8618 32.6152 30.1416 31.3945 29.9463C31.3164 29.9316 31.2773 29.8901 31.2773 29.8218C31.2773 29.7583 31.3359 29.6851 31.4531 29.6021C31.7119 29.4116 31.9219 29.165 32.083 28.8623C32.2441 28.5547 32.3247 28.2153 32.3247 27.8442C32.3247 27.5122 32.2759 27.2266 32.1782 26.9873C32.0854 26.7432 31.9634 26.5552 31.812 26.4233C31.6655 26.2866 31.4727 26.1792 31.2334 26.1011C30.999 26.0181 30.772 25.9668 30.5522 25.9473C30.3325 25.9229 30.0737 25.9106 29.7759 25.9106ZM27.9741 34.6851V26.7896C27.9741 26.6138 28.0327 26.4966 28.1499 26.438C28.272 26.3794 28.4575 26.3501 28.7065 26.3501C28.98 26.3501 29.1704 26.3794 29.2778 26.438C29.3901 26.4917 29.4463 26.6089 29.4463 26.7896V28.5181C29.4463 28.7183 29.5464 28.8184 29.7466 28.8184H31.0356C31.2456 28.8184 31.3506 28.8843 31.3506 29.0161C31.3506 29.0747 31.2969 29.1699 31.1895 29.3018C31.082 29.4336 30.9502 29.5435 30.7939 29.6313C30.623 29.729 30.2739 29.8242 29.7466 29.917C29.5464 29.9561 29.4463 30.0854 29.4463 30.3052V33.4985C29.4463 33.6987 29.5464 33.7988 29.7466 33.7988H31.3213C31.5312 33.7988 31.6362 33.8599 31.6362 33.9819C31.6362 34.0845 31.519 34.2163 31.2847 34.3774C31.0503 34.5386 30.7524 34.6826 30.3911 34.8096C30.0347 34.9365 29.7075 35 29.4097 35H28.2744C28.0742 35 27.9741 34.895 27.9741 34.6851Z" fill="#7FFFD6"/>
<path d="M29.25 24V25.5" stroke="#7FFFD6" stroke-width="0.5"/>
<path d="M29.25 34V35.5" stroke="#7FFFD6" stroke-width="0.5"/>
<path d="M30.25 24V25.5" stroke="#7FFFD6" stroke-width="0.5"/>
<path d="M30.25 34V35.5" stroke="#7FFFD6" stroke-width="0.5"/>
<path d="M23.0264 44H21.7959V36.8906H23.0264V44ZM25.5312 38.7168L25.5654 39.3271C25.9561 38.8551 26.4688 38.6191 27.1035 38.6191C28.2038 38.6191 28.7637 39.249 28.7832 40.5088V44H27.5967V40.5771C27.5967 40.2419 27.5234 39.9945 27.377 39.835C27.2337 39.6722 26.9977 39.5908 26.6689 39.5908C26.1904 39.5908 25.834 39.8073 25.5996 40.2402V44H24.4131V38.7168H25.5312ZM31.8594 42.4961L32.9775 38.7168H34.2031L32.3721 44H31.3418L29.4961 38.7168H30.7266L31.8594 42.4961ZM37.2061 44.0977C36.4541 44.0977 35.8438 43.8617 35.375 43.3896C34.9095 42.9144 34.6768 42.2829 34.6768 41.4951V41.3486C34.6768 40.8213 34.7777 40.3509 34.9795 39.9375C35.1846 39.5208 35.471 39.1969 35.8389 38.9658C36.2067 38.7347 36.6169 38.6191 37.0693 38.6191C37.7887 38.6191 38.3438 38.8486 38.7344 39.3076C39.1283 39.7666 39.3252 40.416 39.3252 41.2559V41.7344H35.873C35.9089 42.1706 36.0537 42.5156 36.3076 42.7695C36.5648 43.0234 36.887 43.1504 37.2744 43.1504C37.818 43.1504 38.2607 42.9307 38.6025 42.4912L39.2422 43.1016C39.0306 43.4173 38.7474 43.6631 38.3926 43.8389C38.041 44.0114 37.6455 44.0977 37.2061 44.0977ZM37.0645 39.5713C36.7389 39.5713 36.4753 39.6852 36.2734 39.9131C36.0749 40.141 35.9479 40.4583 35.8926 40.8652H38.1533V40.7773C38.1273 40.3802 38.0215 40.0807 37.8359 39.8789C37.6504 39.6738 37.3932 39.5713 37.0645 39.5713ZM43.2119 42.5645C43.2119 42.3529 43.124 42.1917 42.9482 42.0811C42.7757 41.9704 42.4876 41.8727 42.084 41.7881C41.6803 41.7035 41.3434 41.596 41.0732 41.4658C40.4808 41.1794 40.1846 40.7643 40.1846 40.2207C40.1846 39.765 40.3766 39.3841 40.7607 39.0781C41.1449 38.7721 41.6331 38.6191 42.2256 38.6191C42.8571 38.6191 43.3665 38.7754 43.7539 39.0879C44.1445 39.4004 44.3398 39.8057 44.3398 40.3037H43.1533C43.1533 40.0758 43.0687 39.887 42.8994 39.7373C42.7301 39.5843 42.5055 39.5078 42.2256 39.5078C41.9652 39.5078 41.752 39.568 41.5859 39.6885C41.4232 39.8089 41.3418 39.9701 41.3418 40.1719C41.3418 40.3542 41.4183 40.4958 41.5713 40.5967C41.7243 40.6976 42.0335 40.8001 42.499 40.9043C42.9645 41.0052 43.3291 41.1273 43.5928 41.2705C43.8597 41.4105 44.0566 41.5798 44.1836 41.7783C44.3138 41.9769 44.3789 42.2178 44.3789 42.501C44.3789 42.9762 44.182 43.362 43.7881 43.6582C43.3942 43.9512 42.8783 44.0977 42.2402 44.0977C41.8073 44.0977 41.4215 44.0195 41.083 43.8633C40.7445 43.707 40.4808 43.4922 40.292 43.2188C40.1032 42.9453 40.0088 42.6507 40.0088 42.335H41.1611C41.1774 42.6149 41.2832 42.8314 41.4785 42.9844C41.6738 43.1341 41.9326 43.209 42.2549 43.209C42.5674 43.209 42.805 43.1504 42.9678 43.0332C43.1305 42.9128 43.2119 42.7565 43.2119 42.5645ZM46.9033 37.4326V38.7168H47.8359V39.5957H46.9033V42.5449C46.9033 42.7467 46.9424 42.8932 47.0205 42.9844C47.1019 43.0723 47.2451 43.1162 47.4502 43.1162C47.5869 43.1162 47.7253 43.0999 47.8652 43.0674V43.9854C47.5951 44.0602 47.3346 44.0977 47.084 44.0977C46.1725 44.0977 45.7168 43.5947 45.7168 42.5889V39.5957H44.8477V38.7168H45.7168V37.4326H46.9033Z" fill="white"/>
</svg>
